<?xml version="1.0" encoding="UTF-8"?><svg id="Layer_1" xmlns="http://www.w3.org/2000/svg" viewBox="0 0 1920 195"><defs><style>.cls-1{fill:#002346;}</style></defs><path class="cls-1" d="M173.286,100.272c0,44.782-6.815,92.241-86.156,92.241H0V8.275h86.4c78.611,0,86.886,42.591,86.886,91.997ZM138.24,100.759c0-41.618-6.084-64.252-54.03-64.252h-50.866v127.774h53.057c48.919,0,51.84-29.449,51.84-63.522Z"/><path class="cls-1" d="M354.603,91.267v101.246h-26.772l-2.921-14.603c-11.195,9.735-29.449,16.793-56.221,16.793-42.835,0-59.871-11.926-59.871-47.702,0-35.533,14.603-46.242,64.982-46.242h48.676v-8.032c0-22.147-6.084-29.449-42.348-29.449-24.095,0-28.962,5.841-29.936,11.439l-.974,4.381h-32.613c-2.677-24.581,7.058-40.888,64.252-40.888,68.876,0,73.744,21.904,73.744,53.057ZM241.431,146.027c0,21.174,15.333,23.121,36.75,23.121,24.825,0,44.295-6.815,44.295-18.497v-26.042h-43.078c-26.528,0-37.967,0-37.967,21.417Z"/><path class="cls-1" d="M429.563,40.401l2.19,12.899c12.899-7.788,32.856-15.09,53.543-15.09,44.782,0,57.194,17.523,57.194,60.358v93.944h-32.126v-85.183c0-32.126-2.921-42.105-36.02-42.105-13.629,0-28.475,2.19-40.888,6.571v120.716h-32.126V40.401h28.232Z"/><path class="cls-1" d="M587.513,149.435h32.369l.487,4.381c.974,8.275,5.111,15.333,35.29,15.333,33.586,0,40.401-4.381,40.401-21.904,0-13.873-5.111-16.55-20.2-17.767l-41.131-3.407c-25.311-2.19-46.972-8.275-46.972-41.131,0-30.422,14.603-46.729,70.823-46.729,60.601,0,68.146,14.603,64.739,40.888h-32.126l-.73-3.894c-.73-6.328-7.545-11.439-32.856-11.439-30.422,0-37.237,4.381-37.237,19.47,0,9.979,4.381,14.603,19.47,15.82l41.131,3.164c28.475,2.19,47.702,10.222,47.702,44.052,0,32.856-14.116,48.432-73.987,48.432-64.495,0-70.337-18.01-67.173-45.269Z"/><path class="cls-1" d="M805.578,0v100.759h20.444l52.326-60.358h38.941l-62.305,70.823,64.739,81.289h-40.888l-52.326-67.416h-20.931v67.416h-32.126V0h32.126Z"/><path class="cls-1" d="M1082.055,124.61h-112.685c0,37.48,8.518,44.538,44.295,44.538,30.422,0,33.343-4.624,34.56-12.899l.487-4.381h31.639c1.947,17.523.73,42.835-67.416,42.835-56.951,0-76.178-12.656-76.178-76.908,0-59.384,17.28-79.585,74.717-79.585,64.252,0,71.31,29.692,71.31,69.606,0,5.354-.243,11.682-.73,16.793ZM1010.988,63.279c-36.02,0-38.697,13.142-40.644,37.48h79.828c0-23.608-3.407-37.48-39.184-37.48Z"/><path class="cls-1" d="M1355.125,139.943c0,40.644-19.957,52.57-67.416,52.57h-93.701V8.275h101.489c33.1,0,53.787,9.005,53.787,46.729,0,22.878-12.412,36.994-35.533,41.374,32.126,4.137,41.374,21.174,41.374,43.565ZM1315.211,58.654c0-20.444-13.629-22.391-31.639-22.391h-56.221v48.676h54.517c27.258,0,33.343-9.005,33.343-26.285ZM1321.052,139.213c0-19.47-9.005-27.258-33.1-27.258h-60.601v52.57h57.437c23.608,0,36.263-3.164,36.263-25.311Z"/><path class="cls-1" d="M1537.414,91.267v101.246h-26.772l-2.921-14.603c-11.195,9.735-29.449,16.793-56.221,16.793-42.835,0-59.871-11.926-59.871-47.702,0-35.533,14.603-46.242,64.982-46.242h48.676v-8.032c0-22.147-6.084-29.449-42.348-29.449-24.095,0-28.962,5.841-29.936,11.439l-.974,4.381h-32.613c-2.677-24.581,7.058-40.888,64.252-40.888,68.876,0,73.744,21.904,73.744,53.057ZM1424.243,146.027c0,21.174,15.333,23.121,36.75,23.121,24.825,0,44.295-6.815,44.295-18.497v-26.042h-43.078c-26.528,0-37.967,0-37.967,21.417Z"/><path class="cls-1" d="M1612.374,40.401l2.19,12.899c12.899-7.788,32.856-15.09,53.543-15.09,44.782,0,57.194,17.523,57.194,60.358v93.944h-32.126v-85.183c0-32.126-2.921-42.105-36.02-42.105-13.629,0-28.475,2.19-40.888,6.571v120.716h-32.126V40.401h28.232Z"/><path class="cls-1" d="M1805.855,0v100.759h20.444l52.326-60.358h38.941l-62.305,70.823,64.739,81.289h-40.888l-52.326-67.416h-20.931v67.416h-32.126V0h32.126Z"/></svg>